#tb 0: 1/25
#media_type 0: video
#codec_id 0: rawvideo
#dimensions 0: 640x480
#sar 0: 1/1
#tb 1: 1/44100
#media_type 1: audio
#codec_id 1: pcm_s16le
#sample_rate 1: 44100
#channel_layout 1: 4
#channel_layout_name 1: mono
0,          0,          0,        1,   921600, 0xbac50a6a
1,          0,          0,     1024,     2048, 0x1ee8f45a
1,       1024,       1024,     1024,     2048, 0x273ef6ee
0,          1,          1,        1,   921600, 0x9518a5c6
1,       2048,       2048,     1024,     2048, 0x0a5f0111
1,       3072,       3072,     1024,     2048, 0x51be06b8
0,          2,          2,        1,   921600, 0x6d772b45
1,       4096,       4096,     1024,     2048, 0x71a1ffcb
1,       5120,       5120,     1024,     2048, 0x7f64f50f
0,          3,          3,        1,   921600, 0xd0a99ac9
1,       6144,       6144,     1024,     2048, 0x70a8fa17
0,          4,          4,        1,   921600, 0xef2bf424
1,       7168,       7168,     1024,     2048, 0x0dad072a
1,       8192,       8192,     1024,     2048, 0x5e810c51
0,          5,          5,        1,   921600, 0x575c3d5a
1,       9216,       9216,     1024,     2048, 0xbe5bf462
1,      10240,      10240,     1024,     2048, 0xbcd9faeb
0,          6,          6,        1,   921600, 0xa123687b
1,      11264,      11264,     1024,     2048, 0x0d5bfe9c
1,      12288,      12288,     1024,     2048, 0x97d80297
0,          7,          7,        1,   921600, 0x30667ded
1,      13312,      13312,     1024,     2048, 0xba0f0894
0,          8,          8,        1,   921600, 0x9c507cf9
1,      14336,      14336,     1024,     2048, 0xcc22f291
1,      15360,      15360,     1024,     2048, 0x11a9fa03
0,          9,          9,        1,   921600, 0x5a8762c3
1,      16384,      16384,     1024,     2048, 0x9a920378
1,      17408,      17408,     1024,     2048, 0x901b0525
0,         10,         10,        1,   921600, 0x5f89340f
1,      18432,      18432,     1024,     2048, 0x74b2003f
0,         11,         11,        1,   921600, 0x1f27eee6
1,      19456,      19456,     1024,     2048, 0xa20ef3ed
1,      20480,      20480,     1024,     2048, 0x44cef9de
0,         12,         12,        1,   921600, 0x2bcd941d
1,      21504,      21504,     1024,     2048, 0x4b2e039b
1,      22528,      22528,     1024,     2048, 0x198509a1
0,         13,         13,        1,   921600, 0x2ff6168a
1,      23552,      23552,     1024,     2048, 0xcab6f9e5
1,      24576,      24576,     1024,     2048, 0x67f8f608
0,         14,         14,        1,   921600, 0x46ac8d78
1,      25600,      25600,     1024,     2048, 0x8d7f03fa
0,         15,         15,        1,   921600, 0x7d31eef4
1,      26624,      26624,     1024,     2048, 0x3e1e0566
1,      27648,      27648,     1024,     2048, 0x2cfe0308
0,         16,         16,        1,   921600, 0x30794ac7
1,      28672,      28672,     1024,     2048, 0x1ceaf702
1,      29696,      29696,     1024,     2048, 0x38a9f3d1
0,         17,         17,        1,   921600, 0xaa819657
1,      30720,      30720,     1024,     2048, 0x6c3306b7
1,      31744,      31744,     1024,     2048, 0x600f0579
0,         18,         18,        1,   921600, 0x3d8ef1de
1,      32768,      32768,     1024,     2048, 0x3e5afa28
0,         19,         19,        1,   921600, 0xd6f94db1
1,      33792,      33792,     1024,     2048, 0x053ff47a
1,      34816,      34816,     1024,     2048, 0x0d28fed9
0,         20,         20,        1,   921600, 0x8a9da938
1,      35840,      35840,     1024,     2048, 0x279805cc
1,      36864,      36864,     1024,     2048, 0xb16a0a12
0,         21,         21,        1,   921600, 0xb74df48b
1,      37888,      37888,     1024,     2048, 0xb45af340
0,         22,         22,        1,   921600, 0xb3fc509b
1,      38912,      38912,     1024,     2048, 0x1834f972
1,      39936,      39936,     1024,     2048, 0xb5d206ae
0,         23,         23,        1,   921600, 0xecc1ac22
1,      40960,      40960,     1024,     2048, 0xc5760375
1,      41984,      41984,     1024,     2048, 0x503800ce
0,         24,         24,        1,   921600, 0x3e6207f5
1,      43008,      43008,     1024,     2048, 0xa3bbf4af
1,      44032,      44032,     1024,     2048, 0x9012f9d2
